<?xml version="1.0" encoding="UTF-8" standalone="no"?>
<!-- Generator: Adobe Illustrator 16.0.0, SVG Export Plug-In . SVG Version: 6.00 Build 0)  -->

<svg
   xmlns:dc="http://purl.org/dc/elements/1.1/"
   xmlns:cc="http://creativecommons.org/ns#"
   xmlns:rdf="http://www.w3.org/1999/02/22-rdf-syntax-ns#"
   xmlns:svg="http://www.w3.org/2000/svg"
   xmlns="http://www.w3.org/2000/svg"
   xmlns:sodipodi="http://sodipodi.sourceforge.net/DTD/sodipodi-0.dtd"
   xmlns:inkscape="http://www.inkscape.org/namespaces/inkscape"
   version="1.1"
   id="Layer_1"
   x="0px"
   y="0px"
   width="641.25px"
   height="100px"
   viewBox="0 0 641.25 100"
   enable-background="new 0 0 641.25 100"
   xml:space="preserve"
   inkscape:version="0.91 r13725"
   sodipodi:docname="K_PlayThroughIt3-01_recolor.svg"><metadata
     id="metadata71"><rdf:RDF><cc:Work
         rdf:about=""><dc:format>image/svg+xml</dc:format><dc:type
           rdf:resource="http://purl.org/dc/dcmitype/StillImage" /><dc:title></dc:title></cc:Work></rdf:RDF></metadata><defs
     id="defs69" /><sodipodi:namedview
     pagecolor="#ffffff"
     bordercolor="#666666"
     borderopacity="1"
     objecttolerance="10"
     gridtolerance="10"
     guidetolerance="10"
     inkscape:pageopacity="0"
     inkscape:pageshadow="2"
     inkscape:window-width="1920"
     inkscape:window-height="1012"
     id="namedview67"
     showgrid="false"
     inkscape:zoom="1.8526316"
     inkscape:cx="267.60278"
     inkscape:cy="26.041986"
     inkscape:window-x="-8"
     inkscape:window-y="-8"
     inkscape:window-maximized="1"
     inkscape:current-layer="g3" /><g
     id="g3"><g
       id="g5"><path
         fill="#06637C"
         d="M144.542,44.876v3.126c1.285-1.285,2.673-2.248,4.166-2.892c1.493-0.64,3.091-0.964,4.792-0.964    c3.697,0,6.839,1.399,9.426,4.193c2.587,2.796,3.881,6.38,3.881,10.754c0,4.218-1.338,7.747-4.012,10.585    c-2.673,2.836-5.841,4.257-9.505,4.257c-1.631,0-3.15-0.291-4.554-0.873c-1.406-0.581-2.804-1.532-4.194-2.851v13.357h-7.054    V44.876H144.542z M152.016,50.71c-2.241,0-4.099,0.763-5.573,2.291c-1.477,1.527-2.213,3.523-2.213,5.988    c0,2.518,0.736,4.553,2.213,6.105c1.474,1.553,3.332,2.331,5.573,2.331c2.168,0,3.996-0.79,5.479-2.369    c1.486-1.58,2.227-3.595,2.227-6.04c0-2.43-0.729-4.423-2.187-5.977C156.077,51.487,154.238,50.71,152.016,50.71z"
         id="path7" /><path
         d="m 182.574,33.941 7.107,0 0,39.266 -7.107,0 0,-39.266 z"
         id="path9"
         inkscape:connector-curvature="0"
         style="fill:#06637c" /><path
         fill="#06637C"
         d="M227.713,44.876h7.108v28.331h-7.108v-2.994c-1.388,1.319-2.78,2.27-4.173,2.851    c-1.397,0.582-2.912,0.873-4.54,0.873c-3.659,0-6.823-1.42-9.494-4.257c-2.668-2.838-4.002-6.367-4.002-10.585    c0-4.374,1.29-7.958,3.874-10.754c2.582-2.793,5.722-4.193,9.414-4.193c1.701,0,3.294,0.324,4.785,0.964    c1.491,0.644,2.869,1.606,4.136,2.892V44.876z M220.241,50.71c-2.196,0-4.023,0.777-5.477,2.33    c-1.453,1.554-2.18,3.547-2.18,5.977c0,2.445,0.741,4.46,2.22,6.04c1.479,1.58,3.299,2.369,5.461,2.369    c2.233,0,4.084-0.778,5.556-2.331c1.47-1.553,2.206-3.588,2.206-6.105c0-2.465-0.736-4.461-2.206-5.988    C224.349,51.473,222.491,50.71,220.241,50.71z"
         id="path11" /><path
         fill="#06637C"
         d="M249.53,44.876h7.264l7.358,17.778l8.122-17.778h7.283l-17.742,38.693h-7.341l5.825-12.477L249.53,44.876z    "
         id="path13" /><path
         fill="#06637C"
         d="M295.13,34.436h7.108v10.44h4.22v6.121h-4.22v22.21h-7.108v-22.21h-3.645v-6.121h3.645V34.436z"
         id="path15" /><path
         fill="#06637C"
         d="M320.949,33.941h7.057v13.801c1.388-1.197,2.788-2.097,4.192-2.695c1.407-0.599,2.83-0.899,4.271-0.899    c2.811,0,5.18,0.973,7.108,2.917c1.647,1.685,2.475,4.157,2.475,7.421v18.722h-7.005v-12.42c0-3.282-0.154-5.504-0.467-6.665    c-0.313-1.165-0.848-2.033-1.603-2.604c-0.755-0.574-1.687-0.86-2.799-0.86c-1.442,0-2.678,0.478-3.71,1.431    c-1.033,0.956-1.748,2.257-2.147,3.907c-0.208,0.849-0.313,2.794-0.313,5.832v11.379h-7.057V33.941z"
         id="path17" /><path
         fill="#06637C"
         d="M361.923,44.876h6.094v3.568c0.659-1.404,1.535-2.473,2.628-3.202c1.094-0.729,2.292-1.095,3.594-1.095    c0.92,0,1.883,0.244,2.89,0.729l-2.212,6.121c-0.834-0.416-1.519-0.625-2.059-0.625c-1.091,0-2.017,0.676-2.771,2.03    c-0.757,1.353-1.133,4.011-1.133,7.968l0.025,1.38v11.457h-7.056V44.876z"
         id="path19" /><path
         fill="#06637C"
         d="M404.616,44.147c2.673,0,5.185,0.67,7.538,2.006c2.35,1.338,4.187,3.151,5.507,5.442    c1.318,2.291,1.979,4.764,1.979,7.422c0,2.673-0.666,5.172-1.993,7.498c-1.33,2.326-3.138,4.145-5.428,5.455    c-2.292,1.31-4.818,1.966-7.578,1.966c-4.063,0-7.531-1.445-10.405-4.336c-2.872-2.889-4.309-6.4-4.309-10.532    c0-4.425,1.624-8.114,4.87-11.064C397.646,45.433,400.917,44.147,404.616,44.147z M404.731,50.839    c-2.206,0-4.047,0.77-5.514,2.305c-1.47,1.535-2.204,3.502-2.204,5.897c0,2.466,0.724,4.461,2.175,5.988    c1.454,1.528,3.29,2.291,5.519,2.291c2.225,0,4.077-0.771,5.554-2.315c1.477-1.545,2.215-3.533,2.215-5.964    c0-2.43-0.724-4.405-2.175-5.924C408.848,51.6,406.993,50.839,404.731,50.839z"
         id="path21" /><path
         fill="#06637C"
         d="M436.085,44.876h7.185v13.646c0,2.655,0.185,4.5,0.549,5.533c0.365,1.032,0.954,1.835,1.762,2.409    c0.808,0.572,1.804,0.857,2.988,0.857s2.189-0.282,3.014-0.846c0.827-0.563,1.441-1.392,1.841-2.486    c0.294-0.814,0.444-2.56,0.444-5.234V44.876h7.108V56.88c0,4.948-0.39,8.333-1.171,10.156c-0.956,2.222-2.362,3.928-4.22,5.117    c-1.857,1.188-4.217,1.783-7.082,1.783c-3.107,0-5.62-0.694-7.538-2.083c-1.918-1.388-3.267-3.324-4.049-5.806    c-0.554-1.719-0.832-4.843-0.832-9.375V44.876z"
         id="path23" /><path
         fill="#06637C"
         d="M499.712,44.876h7.082v24.27c0,4.79-0.963,8.312-2.89,10.57c-2.589,3.055-6.484,4.583-11.692,4.583    c-2.776,0-5.112-0.348-7.005-1.041c-1.891-0.695-3.489-1.714-4.79-3.059c-1.301-1.346-2.264-2.984-2.89-4.909h7.839    c0.692,0.799,1.586,1.401,2.68,1.81c1.093,0.406,2.388,0.611,3.881,0.611c1.909,0,3.444-0.294,4.608-0.884    c1.164-0.591,1.984-1.354,2.46-2.292c0.479-0.937,0.717-2.551,0.717-4.842c-1.25,1.25-2.561,2.148-3.933,2.695    c-1.372,0.545-2.925,0.82-4.662,0.82c-3.801,0-7.014-1.373-9.633-4.115c-2.622-2.743-3.933-6.214-3.933-10.415    c0-4.496,1.39-8.105,4.166-10.831c2.517-2.465,5.521-3.699,9.01-3.699c1.631,0,3.173,0.3,4.622,0.899    c1.449,0.598,2.904,1.584,4.362,2.956V44.876z M492.342,50.789c-2.241,0-4.086,0.75-5.547,2.251    c-1.458,1.502-2.187,3.389-2.187,5.664c0,2.361,0.745,4.296,2.241,5.806c1.493,1.511,3.367,2.266,5.624,2.266    c2.203,0,4.023-0.738,5.454-2.213c1.432-1.477,2.149-3.413,2.149-5.808c0-2.361-0.72-4.278-2.164-5.753    C496.473,51.526,494.616,50.789,492.342,50.789z"
         id="path25" /><path
         fill="#06637C"
         d="M524.671,33.941h7.056v13.801c1.388-1.197,2.788-2.097,4.192-2.695c1.407-0.599,2.83-0.899,4.271-0.899    c2.811,0,5.18,0.973,7.108,2.917c1.647,1.685,2.474,4.157,2.474,7.421v18.722h-7.005v-12.42c0-3.282-0.157-5.504-0.467-6.665    c-0.313-1.165-0.848-2.033-1.603-2.604c-0.754-0.574-1.687-0.86-2.799-0.86c-1.441,0-2.678,0.478-3.71,1.431    c-1.033,0.956-1.75,2.257-2.147,3.907c-0.21,0.849-0.313,2.794-0.313,5.832v11.379h-7.056V33.941z"
         id="path27" /><path
         fill="#06637C"
         d="M571.189,65.786c1.128,0,2.093,0.395,2.89,1.185c0.799,0.79,1.199,1.749,1.199,2.877    c0,1.129-0.399,2.091-1.199,2.889c-0.797,0.799-1.762,1.199-2.89,1.199s-2.091-0.399-2.891-1.199    c-0.799-0.798-1.196-1.76-1.196-2.889c0-1.128,0.397-2.087,1.196-2.877C569.098,66.181,570.061,65.786,571.189,65.786z"
         id="path29" /><path
         fill="#06637C"
         d="M595.669,33.212c1.246,0,2.315,0.451,3.206,1.354c0.891,0.902,1.337,1.997,1.337,3.282    c0,1.265-0.442,2.347-1.325,3.242c-0.881,0.894-1.937,1.34-3.166,1.34c-1.264,0-2.341-0.456-3.234-1.367    c-0.89-0.91-1.336-2.019-1.336-3.319c0-1.25,0.442-2.318,1.325-3.204C593.356,33.655,594.422,33.212,595.669,33.212z     M592.113,44.876h7.11v28.331h-7.11V44.876z"
         id="path31" /><path
         fill="#06637C"
         d="M617.206,34.436h7.108v10.44h4.217v6.121h-4.217v22.21h-7.108v-22.21h-3.645v-6.121h3.645V34.436z"
         id="path33" /></g><g
       id="g35"><path
         d="M114.555,56.865l-10.278-17.803c-0.47-0.814-2.335-1.892-3.275-1.892H56.244L35.506,67.832L21.182,57.756    c-0.156,0.973-0.064,2.294,0.279,2.89l10.277,17.802c0.47,0.813,2.338,1.892,3.277,1.892h20.557c0.938,0,2.803-1.077,3.271-1.888    l1.971-3.41h14.39l1.966,3.408c0.47,0.812,2.336,1.891,3.274,1.891h20.557c0.938,0,2.805-1.079,3.275-1.892l10.278-17.803    C115.025,59.832,115.024,57.678,114.555,56.865z"
         id="path37"
         style="fill:#e6e6e6"
         fill="#01AEEE" /><g
         id="g39"><path
           fill="#06637C"
           d="M52.175,50.155c-1.951,0-3.53,1.574-3.53,3.516v2.298h-2.31c-1.95,0-3.53,1.576-3.53,3.519     c0,1.938,1.58,3.514,3.53,3.514h2.31v2.301c0,1.936,1.58,3.513,3.53,3.513c1.95,0,3.53-1.577,3.53-3.513v-2.301h2.313     c1.946,0,3.529-1.576,3.529-3.514c0-1.943-1.583-3.519-3.529-3.519h-2.313v-2.298C55.705,51.729,54.125,50.155,52.175,50.155z"
           id="path41" /></g><g
         id="g43"><g
           id="g45"><path
             fill="#06637C"
             d="M94.896,62.605c1.734,0,3.138-1.394,3.138-3.118c0-1.729-1.404-3.121-3.138-3.121      c-1.732,0-3.136,1.391-3.136,3.121C91.761,61.212,93.164,62.605,94.896,62.605z"
             id="path47"
             style="fill:#fdbe00;fill-opacity:0.94117647" /></g><g
           id="g49"><ellipse
             fill="#06637C"
             cx="88.625"
             cy="53.243"
             rx="3.136"
             ry="3.125"
             id="ellipse51"
             style="fill:#01afee;fill-opacity:1" /></g><g
           id="g53"><path
             fill="#06637C"
             d="M88.625,68.853c1.731,0,3.135-1.398,3.135-3.121c0-1.723-1.404-3.126-3.135-3.126      c-1.731,0-3.136,1.403-3.136,3.126C85.49,67.454,86.894,68.853,88.625,68.853z"
             id="path55"
             style="fill:#ee4025;fill-opacity:1" /></g><g
           id="g57"><path
             fill="#06637C"
             d="M82.354,56.367c-1.734,0-3.138,1.391-3.138,3.121c0,1.724,1.404,3.118,3.138,3.118      c1.731,0,3.136-1.394,3.136-3.118C85.49,57.758,84.085,56.367,82.354,56.367z"
             id="path59"
             style="fill:#5ad195;fill-opacity:1" /></g></g><path
         d="M113.489,33.743c-2.372-4.111-7.741-7.209-12.487-7.209H50.6L32.765,52.899L17.669,42.284l-5.421,9.263    c-2.372,4.109-2.372,10.308,0,14.417l10.278,17.805c2.374,4.11,7.741,7.208,12.489,7.208h20.557c3.975,0,8.388-2.175,11.108-5.297    h2.654c2.722,3.122,7.134,5.297,11.11,5.297h20.557c4.746,0,10.115-3.098,12.487-7.208l10.278-17.805    c1.185-2.052,1.777-4.624,1.778-7.199v-0.019c-0.001-2.575-0.594-5.147-1.778-7.199L113.489,33.743z M117.145,62.141    l-10.278,17.804c-1.005,1.741-3.855,3.387-5.865,3.387H80.445c-2.009,0-4.86-1.646-5.865-3.387l-1.103-1.912H62.54l-1.105,1.912    c-1.002,1.741-3.853,3.387-5.862,3.387H35.015c-2.012,0-4.862-1.646-5.867-3.387L18.87,62.141    c-1.002-1.738-1.004-5.019-0.004-6.762l1.206-2.06l14.664,10.314l19.921-29.454h46.346c2.009,0,4.86,1.645,5.865,3.387    l10.278,17.803C118.15,57.11,118.15,60.401,117.145,62.141z"
         id="path61"
         fill="#06637C" /><g
         id="g63"><path
           fill="#06637C"
           d="M32.057,48.081L13.855,35.28c-1.727-1.215-2.143-3.6-0.928-5.326c1.215-1.728,3.599-2.143,5.325-0.928     l11.952,8.403l17.428-24.781c1.215-1.728,3.598-2.143,5.327-0.928c1.727,1.215,2.141,3.598,0.925,5.326L32.057,48.081z"
           id="path65" /></g></g></g></svg>